<?xml version="1.0" encoding="iso-8859-1"?>
<!-- Generator: Adobe Illustrator 19.0.0, SVG Export Plug-In . SVG Version: 6.00 Build 0)  -->
<svg version="1.1" id="Layer_1" xmlns="http://www.w3.org/2000/svg" xmlns:xlink="http://www.w3.org/1999/xlink" x="0px" y="0px"
	 viewBox="0 0 512 512" style="enable-background:new 0 0 512 512;" xml:space="preserve">
<g>
	<g>
		<path d="M472.234,0H39.778C17.844,0,0,17.844,0,39.778v432.456C0,494.161,17.844,512,39.778,512h432.456
			C494.161,512,512,494.161,512,472.234V39.778C512,17.844,494.16,0,472.234,0z M487.146,472.234
			c0,8.223-6.689,14.912-14.912,14.912H39.778c-8.229,0-14.925-6.689-14.925-14.912V39.778c0-8.229,6.696-14.925,14.925-14.925
			h432.456c8.223,0,14.912,6.696,14.912,14.925V472.234z"/>
	</g>
</g>
<g>
	<g>
		<path d="M362.826,142.091c-0.932-0.875-1.877-1.739-2.83-2.591c-5.117-4.573-12.972-4.133-17.547,0.984
			c-4.574,5.117-4.134,12.974,0.983,17.547c0.805,0.72,1.602,1.45,2.391,2.188c2.398,2.249,5.452,3.363,8.499,3.363
			c3.314,0,6.62-1.319,9.067-3.926C368.084,154.651,367.832,146.786,362.826,142.091z"/>
	</g>
</g>
<g>
	<g>
		<path d="M386.524,170.243c-3.769-5.731-11.476-7.323-17.211-3.548c-5.733,3.774-7.322,11.48-3.547,17.213
			c14.093,21.41,21.542,46.342,21.542,72.098c0,72.4-58.902,131.302-131.302,131.302c-72.408,0-131.315-58.902-131.315-131.302
			c0-72.408,58.907-131.315,131.315-131.315c21.994,0,43.748,5.54,62.909,16.022c6.022,3.294,13.573,1.084,16.866-4.938
			c3.293-6.022,1.082-13.573-4.94-16.866c-22.807-12.477-48.685-19.072-74.836-19.072c-86.111,0-156.169,70.057-156.169,156.169
			c0,86.105,70.057,156.156,156.169,156.156c86.105,0,156.156-70.052,156.156-156.156
			C412.161,225.379,403.296,195.722,386.524,170.243z"/>
	</g>
</g>
<g>
	<g>
		<path d="M184.253,221.199c-19.186,0-34.795,15.614-34.795,34.808s15.609,34.808,34.795,34.808
			c19.193,0,34.808-15.614,34.808-34.808S203.447,221.199,184.253,221.199z M184.253,265.96c-5.482,0-9.942-4.465-9.942-9.954
			s4.46-9.954,9.942-9.954c5.489,0,9.954,4.465,9.954,9.954S189.742,265.96,184.253,265.96z"/>
	</g>
</g>
<g>
	<g>
		<path d="M327.747,221.199c-19.193,0-34.809,15.614-34.809,34.808s15.614,34.808,34.809,34.808
			c19.192,0,34.808-15.614,34.808-34.808S346.94,221.199,327.747,221.199z M327.747,265.96c-5.489,0-9.955-4.465-9.955-9.954
			s4.466-9.954,9.955-9.954s9.954,4.465,9.954,9.954S333.236,265.96,327.747,265.96z"/>
	</g>
</g>
<g>
	<g>
		<path d="M256.006,236.533c-6.863,0-12.427,5.564-12.427,12.427v14.092c0,6.863,5.563,12.427,12.427,12.427
			c6.862,0,12.427-5.564,12.427-12.427V248.96C268.433,242.097,262.868,236.533,256.006,236.533z"/>
	</g>
</g>
<g>
</g>
<g>
</g>
<g>
</g>
<g>
</g>
<g>
</g>
<g>
</g>
<g>
</g>
<g>
</g>
<g>
</g>
<g>
</g>
<g>
</g>
<g>
</g>
<g>
</g>
<g>
</g>
<g>
</g>
</svg>
