<?xml version="1.0" encoding="iso-8859-1"?>
<!-- Generator: Adobe Illustrator 19.0.0, SVG Export Plug-In . SVG Version: 6.00 Build 0)  -->
<svg version="1.1" id="Layer_1" xmlns="http://www.w3.org/2000/svg" xmlns:xlink="http://www.w3.org/1999/xlink" x="0px" y="0px"
	 viewBox="0 0 512 512" style="enable-background:new 0 0 512 512;" xml:space="preserve">
<g>
	<g>
		<path d="M484.501,42.667H27.499C12.316,42.678,0.012,54.983,0,70.165v371.669c0.012,15.182,12.316,27.487,27.499,27.499h457.003
			c15.182-0.012,27.487-12.316,27.499-27.499V70.165C511.988,54.983,499.684,42.678,484.501,42.667z M490.667,441.835
			c0,3.405-2.76,6.165-6.165,6.165H27.499c-3.405,0-6.165-2.76-6.165-6.165V266.667h76.512c2.73,0.001,5.357-1.045,7.339-2.923
			l29.12-27.573l25.088,68.437c2.024,5.532,8.15,8.376,13.682,6.352c3.318-1.214,5.82-3.992,6.68-7.419L214.4,164.373
			l15.925,241.195c0.337,5.094,4.237,9.235,9.301,9.877c0.449,0.057,0.902,0.085,1.355,0.085c4.599-0.002,8.679-2.951,10.123-7.317
			l53.333-161.067l29.291,57.291c1.856,3.616,5.131,5.632,9.685,5.813c4.069-0.07,7.743-2.449,9.472-6.133l17.525-37.451h40.384
			c4.996,6.695,12.852,10.647,21.205,10.667c18.709,0,26.667-7.968,26.667-26.667c0.015-14.728-11.912-26.679-26.64-26.693
			c-12.692-0.013-23.634,8.922-26.16,21.36h-42.24c-4.135,0.001-7.896,2.391-9.653,6.133l-11.211,23.904l-30.933-60.619
			c-2.68-5.246-9.105-7.327-14.351-4.647c-2.499,1.277-4.394,3.486-5.275,6.151L248,349.653L231.168,94.837
			c-0.313-5.883-5.335-10.398-11.218-10.086c-4.732,0.251-8.731,3.595-9.817,8.208l-42.667,171.659l-18.688-51.008
			c-2.029-5.531-8.158-8.369-13.688-6.34c-1.36,0.499-2.604,1.27-3.656,2.265l-37.845,35.797H21.333V70.165
			c0-3.405,2.76-6.165,6.165-6.165h457.003c3.405,0,6.165,2.76,6.165,6.165V441.835z"/>
	</g>
</g>
<g>
</g>
<g>
</g>
<g>
</g>
<g>
</g>
<g>
</g>
<g>
</g>
<g>
</g>
<g>
</g>
<g>
</g>
<g>
</g>
<g>
</g>
<g>
</g>
<g>
</g>
<g>
</g>
<g>
</g>
</svg>
