<?xml version="1.0" encoding="iso-8859-1"?>
<!-- Generator: Adobe Illustrator 19.0.0, SVG Export Plug-In . SVG Version: 6.00 Build 0)  -->
<svg version="1.1" id="Layer_1" xmlns="http://www.w3.org/2000/svg" xmlns:xlink="http://www.w3.org/1999/xlink" x="0px" y="0px"
	 viewBox="0 0 492.308 492.308" style="enable-background:new 0 0 492.308 492.308;" xml:space="preserve">
<g>
	<g>
		<path d="M405.317,0h-31.538H49.183H0v492.308h492.308v-410L405.317,0z M68.875,19.692h285.212v103.144H68.875V19.692z
			 M472.615,472.615H19.692V19.692h29.49v122.837h324.596V19.692h23.692l75.144,71.096V472.615z"/>
	</g>
</g>
<g>
	<g>
		<rect x="295.975" y="47.842" width="19.692" height="55.867"/>
	</g>
</g>
<g>
	<g>
		<path d="M246.154,192.644c-54.288,0-98.462,44.173-98.462,98.461c0,54.289,44.173,98.462,98.462,98.462
			s98.462-44.173,98.462-98.462C344.615,236.817,300.442,192.644,246.154,192.644z M246.154,369.875
			c-43.433,0-78.769-35.337-78.769-78.769c0-43.433,35.337-78.769,78.769-78.769s78.769,35.337,78.769,78.769
			C324.923,334.538,289.587,369.875,246.154,369.875z"/>
	</g>
</g>
<g>
	<g>
		<rect x="59.028" y="426.831" width="68.057" height="19.692"/>
	</g>
</g>
<g>
</g>
<g>
</g>
<g>
</g>
<g>
</g>
<g>
</g>
<g>
</g>
<g>
</g>
<g>
</g>
<g>
</g>
<g>
</g>
<g>
</g>
<g>
</g>
<g>
</g>
<g>
</g>
<g>
</g>
</svg>
