<?xml version="1.0" encoding="iso-8859-1"?>
<!-- Generator: Adobe Illustrator 19.0.0, SVG Export Plug-In . SVG Version: 6.00 Build 0)  -->
<svg version="1.1" id="Layer_1" xmlns="http://www.w3.org/2000/svg" xmlns:xlink="http://www.w3.org/1999/xlink" x="0px" y="0px"
	 viewBox="0 0 512 512" style="enable-background:new 0 0 512 512;" xml:space="preserve">
<g>
	<path style="fill:#D0E8FF;" d="M356.589,339.428h-36.607c-5.031,0-9.125,4.125-9.125,9.196v27.321c0,5.161,4.009,9.196,9.125,9.196
		h9.161v-18.286h18.286v18.286h9.161c5.031,0,9.125-4.125,9.125-9.196v-27.321C365.714,343.464,361.705,339.428,356.589,339.428z"/>
	<path style="fill:#D0E8FF;" d="M128,266.285c-60.496,0-109.714,49.214-109.714,109.714S67.504,485.714,128,485.714
		S237.714,436.5,237.714,376S188.496,266.285,128,266.285z M128,421.714c-25.205,0-45.714-20.509-45.714-45.714
		c0-25.205,20.509-45.714,45.714-45.714s45.714,20.509,45.714,45.714C173.714,401.205,153.205,421.714,128,421.714z"/>
	<path style="fill:#D0E8FF;" d="M128,348.571c-15.125,0-27.429,12.304-27.429,27.429s12.304,27.429,27.429,27.429
		s27.429-12.304,27.429-27.429S143.125,348.571,128,348.571z"/>
	<path style="fill:#D0E8FF;" d="M128,248c34.955,0,66.654,14.113,89.777,36.905c0.555-0.105,1.066-0.333,1.652-0.333h27.429V181.375
		L45.714,157.714v120.38C67.984,259.346,96.679,248,128,248z"/>
</g>
<rect x="329.143" y="229.715" style="fill:#5CB0FF;" width="18.286" height="54.857"/>
<path style="fill:#D0E8FF;" d="M457.143,412.571c-20.165,0-36.571,16.402-36.571,36.571s16.406,36.571,36.571,36.571
	s36.571-16.402,36.571-36.571S477.308,412.571,457.143,412.571z"/>
<path style="fill:#5CB0FF;" d="M448,395.111v-92.254h-91.429H320h-87.107C247.411,323.613,256,348.805,256,376
	c0,27.195-8.589,52.387-23.107,73.143h169.392C402.286,422.014,422.097,399.485,448,395.111z M384,375.946
	c0,15.152-12.295,27.482-27.411,27.482h-9.161h-18.286h-9.161c-15.116,0-27.411-12.33-27.411-27.482v-27.321
	c0-15.152,12.295-27.482,27.411-27.482h36.607c15.116,0,27.411,12.33,27.411,27.482V375.946z"/>
<g>
	<path style="fill:#1C71DA;" d="M128,330.285c-25.205,0-45.714,20.509-45.714,45.714c0,25.205,20.509,45.714,45.714,45.714
		s45.714-20.509,45.714-45.714C173.714,350.794,153.205,330.285,128,330.285z M128,403.428c-15.125,0-27.429-12.304-27.429-27.429
		s12.304-27.429,27.429-27.429s27.429,12.304,27.429,27.429S143.125,403.428,128,403.428z"/>
	<path style="fill:#1C71DA;" d="M466.286,395.111V293.714c0-5.053-4.094-9.143-9.143-9.143h-91.429v-64
		c0-5.053-4.094-9.143-9.143-9.143H320c-5.049,0-9.143,4.089-9.143,9.143v64h-45.714v-111.33c0-4.634-3.469-8.536-8.076-9.08
		L82.286,143.6v-41.886H64v39.735l-26.362-3.101c-2.616-0.348-5.192,0.509-7.143,2.25c-1.951,1.732-3.067,4.223-3.067,6.83v146.286
		c0,0.941,0.272,1.797,0.535,2.651C10.509,318.245,0,345.899,0,376c0,70.58,57.42,128,128,128c34.955,0,66.655-14.113,89.777-36.905
		c0.555,0.105,1.065,0.333,1.651,0.333h186.057C413.041,488.7,433.312,504,457.143,504c30.25,0,54.857-24.607,54.857-54.857
		C512,422.014,492.189,399.485,466.286,395.111z M329.143,229.714h18.286v54.857h-18.286V229.714z M246.857,181.375v103.196h-27.429
		c-0.586,0-1.096,0.228-1.652,0.333C194.654,262.113,162.955,248,128,248c-31.321,0-60.016,11.347-82.286,30.094v-120.38
		L246.857,181.375z M128,485.714C67.504,485.714,18.286,436.5,18.286,376S67.504,266.285,128,266.285S237.714,315.499,237.714,376
		S188.496,485.714,128,485.714z M232.893,449.142C247.411,428.387,256,403.195,256,376c0-27.195-8.589-52.387-23.107-73.143H320
		h36.571H448v92.254c-25.903,4.373-45.714,26.902-45.714,54.031H232.893z M457.143,485.714c-20.165,0-36.571-16.402-36.571-36.571
		s16.406-36.571,36.571-36.571s36.571,16.402,36.571,36.571S477.308,485.714,457.143,485.714z"/>
	<path style="fill:#1C71DA;" d="M356.589,321.142h-36.607c-15.116,0-27.411,12.33-27.411,27.482v27.321
		c0,15.152,12.295,27.482,27.411,27.482h9.161h18.286h9.161c15.116,0,27.411-12.33,27.411-27.482v-27.321
		C384,333.473,371.705,321.142,356.589,321.142z M365.714,375.946c0,5.072-4.094,9.196-9.125,9.196h-9.161v-18.286h-18.286v18.286
		h-9.161c-5.116,0-9.125-4.036-9.125-9.196v-27.321c0-5.072,4.094-9.196,9.125-9.196h36.607c5.116,0,9.125,4.036,9.125,9.196
		V375.946z"/>
</g>
<g>
	<path style="fill:#FF5D5D;" d="M184.033,117.714c-2.34,0-4.68-0.893-6.465-2.679c-3.57-3.569-3.57-9.359,0-12.928l32.325-32.326
		c3.571-3.571,9.359-3.571,12.931,0c3.57,3.569,3.57,9.359,0,12.928l-32.325,32.326
		C188.713,116.821,186.374,117.714,184.033,117.714z"/>
	<path style="fill:#FF5D5D;" d="M216.358,117.714c-2.34,0-4.68-0.893-6.465-2.679l-32.325-32.323c-3.57-3.569-3.57-9.359,0-12.928
		c3.571-3.571,9.359-3.571,12.931,0l32.325,32.324c3.57,3.569,3.57,9.359,0,12.928C221.038,116.821,218.699,117.714,216.358,117.714
		z"/>
</g>
<path style="fill:#00D40B;" d="M426.319,227.428c-17.645,0-32-14.355-32-32s14.355-32,32-32s32,14.355,32,32
	S443.964,227.428,426.319,227.428z M426.319,181.714c-7.563,0-13.714,6.152-13.714,13.714s6.152,13.714,13.714,13.714
	s13.714-6.152,13.714-13.714S433.882,181.714,426.319,181.714z"/>
<path style="fill:#FFC504;" d="M365.323,78.004c-2.339,0-4.68-0.893-6.464-2.679l-25.861-25.859
	c-1.715-1.714-2.679-4.04-2.679-6.464c0-2.424,0.963-4.75,2.679-6.464l25.861-25.859c3.57-3.571,9.359-3.569,12.93,0l25.859,25.859
	c3.57,3.569,3.57,9.359,0,12.928l-25.859,25.859C370.002,77.111,367.662,78.004,365.323,78.004z M352.392,43.002l12.931,12.928
	l12.93-12.928l-12.93-12.928L352.392,43.002z"/>
<g>
</g>
<g>
</g>
<g>
</g>
<g>
</g>
<g>
</g>
<g>
</g>
<g>
</g>
<g>
</g>
<g>
</g>
<g>
</g>
<g>
</g>
<g>
</g>
<g>
</g>
<g>
</g>
<g>
</g>
</svg>
